# xmcd
#
# Track frame offsets: 
#        150
#        14262
#        28598
#        43514
#        55088
#        69670
#        79429
#        91306
#        102504
#        116574
#        129324
#
# Disc length: 1908 seconds
#
# Revision: 0
# Processed by: cddbd v1.5.2PL0 Copyright (c) Steve Scherf et al.
# Submitted via: ExactAudioCopy v1.3
#
DISCID=8d07720b
DTITLE=Big Boy Bloater - Big Boy Bloater And The Limits
DYEAR=2012
DGENRE=Blues
TTITLE0=Ugly Way Of Thinking
TTITLE1=I Heard Those Voices Again
TTITLE2=Fumble Fisted Fool
TTITLE3=Sweet and Brown
TTITLE4=My Prayer
TTITLE5=She's Just A Friend
TTITLE6=Rocket Surgery
TTITLE7=Get Over That It's Over
TTITLE8=Rushing To Waste Time
TTITLE9=Big Fat Trap
TTITLE10=Every Path Has Its Puddle
EXTD=
EXTT0=
EXTT1=
EXTT2=
EXTT3=
EXTT4=
EXTT5=
EXTT6=
EXTT7=
EXTT8=
EXTT9=
EXTT10=
PLAYORDER=
